+15_US_stride2.mot
nRows=127
nColumns=3

name +15_US_stride2.mot
datacolumns 3
datarows 127
range 0.150000 0.780000
endheader
time	soleus_l	med_gas_l
        0.1500000000	       30.6872252603	       32.9072586148	
        0.1550000000	       30.5226287629	       33.0928069622	
        0.1600000000	       30.3956875263	       33.0409752828	
        0.1650000000	       30.3711418495	       32.8267071913	
        0.1700000000	       30.3839301907	       32.4211975426	
        0.1750000000	       30.5118887021	       31.7872648039	
        0.1800000000	       30.7076351371	       31.1329706574	
        0.1850000000	       30.9321766684	       30.5232884018	
        0.1900000000	       31.1450472367	       30.0311646148	
        0.1950000000	       31.2729319391	       29.7644693236	
        0.2000000000	       31.3316721080	       29.6472175775	
        0.2050000000	       31.3172573037	       29.6458325595	
        0.2100000000	       31.2249959396	       29.7311976826	
        0.2150000000	       31.0489666640	       29.8891168310	
        0.2200000000	       30.8406868406	       30.0177263108	
        0.2250000000	       30.6541087035	       30.0732285752	
        0.2300000000	       30.5286216302	       30.0594421933	
        0.2350000000	       30.4132799671	       30.0035491394	
        0.2400000000	       30.3149635288	       29.8802021875	
        0.2450000000	       30.2328986739	       29.7519504953	
        0.2500000000	       30.1401814021	       29.6504049195	
        0.2550000000	       30.0446667264	       29.5927891204	
        0.2600000000	       29.9107096466	       29.5292171725	
        0.2650000000	       29.7070560741	       29.4327071662	
        0.2700000000	       29.4732915842	       29.2697567583	
        0.2750000000	       29.2210443003	       29.0110594617	
        0.2800000000	       28.9557839145	       28.6521984374	
        0.2850000000	       28.7411010156	       28.3143132529	
        0.2900000000	       28.5595793382	       28.0139842099	
        0.2950000000	       28.3335292703	       27.6624363993	
        0.3000000000	       28.1157046311	       27.4063514215	
        0.3050000000	       27.9125038685	       27.2813278505	
        0.3100000000	       27.6932590200	       27.2493704454	
        0.3150000000	       27.4339977182	       27.2548448317	
        0.3200000000	       27.2230689061	       27.2507378780	
        0.3250000000	       26.9192426240	       27.2070345435	
        0.3300000000	       26.5266070216	       27.0586016633	
        0.3350000000	       26.1092023859	       26.8177572908	
        0.3400000000	       25.6503035212	       26.5056505002	
        0.3450000000	       25.1871082990	       26.1917350960	
        0.3500000000	       24.8406613893	       25.9859292335	
        0.3550000000	       24.5188050639	       25.8305719016	
        0.3600000000	       24.1372395342	       25.6987677413	
        0.3650000000	       23.8369626613	       25.6364659352	
        0.3700000000	       23.6118501841	       25.5849122670	
        0.3750000000	       23.4878569870	       25.5234563010	
        0.3800000000	       23.4162367126	       25.4348289743	
        0.3850000000	       23.3625458358	       25.2517428464	
        0.3900000000	       23.3381067366	       25.0035451569	
        0.3950000000	       23.3357780023	       24.7220909208	
        0.4000000000	       23.3463224290	       24.4400106275	
        0.4050000000	       23.3946929397	       24.2085150538	
        0.4100000000	       23.4709436764	       24.0750443014	
        0.4150000000	       23.6230111863	       23.9855938569	
        0.4200000000	       23.8931817145	       23.9608580156	
        0.4250000000	       24.2708787707	       23.9841505131	
        0.4300000000	       24.7756586197	       24.0486282854	
        0.4350000000	       25.3426248786	       24.1210393641	
        0.4400000000	       25.7898000828	       24.1866763138	
        0.4450000000	       26.2294946863	       24.2699002429	
        0.4500000000	       26.7845406721	       24.4353918666	
        0.4550000000	       27.2698651292	       24.6759062846	
        0.4600000000	       27.7197528457	       24.9944380243	
        0.4650000000	       28.1669029638	       25.3733395062	
        0.4700000000	       28.5749233344	       25.7226488317	
        0.4750000000	       28.9163498199	       25.9884555318	
        0.4800000000	       29.3854494138	       26.2828110523	
        0.4850000000	       29.8867311723	       26.5037714865	
        0.4900000000	       30.3693286846	       26.6066964677	
        0.4950000000	       30.7962601118	       26.6301688721	
        0.5000000000	       31.0809070293	       26.5788423634	
        0.5050000000	       31.3785287493	       26.4715310999	
        0.5100000000	       31.6466977258	       26.2978330339	
        0.5150000000	       31.8236149455	       26.1180126295	
        0.5200000000	       31.9100197728	       25.9863006183	
        0.5250000000	       31.8970174027	       25.9864063414	
        0.5300000000	       31.8528797405	       26.0604000047	
        0.5350000000	       31.7766056096	       26.2859610995	
        0.5400000000	       31.6916225767	       26.7577718033	
        0.5450000000	       31.6832780326	       27.3841847040	
        0.5500000000	       31.7561573208	       28.1147571754	
        0.5550000000	       31.9431958370	       28.8649324984	
        0.5600000000	       32.1856940678	       29.4960312859	
        0.5650000000	       32.4197366252	       29.9553961486	
        0.5700000000	       32.7127845837	       30.4055244460	
        0.5750000000	       32.9788492134	       30.7099865225	
        0.5800000000	       33.1675748215	       30.8522149307	
        0.5850000000	       33.2827354435	       30.8918901701	
        0.5900000000	       33.3445255396	       30.8755070614	
        0.5950000000	       33.3791250123	       30.8576463880	
        0.6000000000	       33.4300086970	       30.8550369104	
        0.6050000000	       33.5372649686	       30.8835070270	
        0.6100000000	       33.7081058983	       30.9609880509	
        0.6150000000	       33.9327971195	       31.0731169634	
        0.6200000000	       34.1832863410	       31.2127609474	
        0.6250000000	       34.3677361198	       31.3361087427	
        0.6300000000	       34.4910827006	       31.4458858331	
        0.6350000000	       34.5802300190	       31.5945423658	
        0.6400000000	       34.5565914562	       31.7362779156	
        0.6450000000	       34.4512250293	       31.8738197098	
        0.6500000000	       34.2919822658	       31.9911515718	
        0.6550000000	       34.1550513996	       32.0802194508	
        0.6600000000	       33.9973934207	       32.2015907025	
        0.6650000000	       33.9355959632	       32.3383801452	
        0.6700000000	       33.9485843023	       32.4867118108	
        0.6750000000	       34.1131081144	       32.6543280637	
        0.6800000000	       34.4016842127	       32.8405918722	
        0.6850000000	       34.6725935562	       32.9863678058	
        0.6900000000	       35.0118173041	       33.1538883356	
        0.6950000000	       35.4308567768	       33.3576162020	
        0.7000000000	       35.7605583457	       33.5334775406	
        0.7050000000	       35.9755193832	       33.6812563201	
        0.7100000000	       35.9861476901	       33.7929298798	
        0.7150000000	       35.9468301563	       33.8471682885	
        0.7200000000	       35.7935559621	       33.8689803215	
        0.7250000000	       35.5630659152	       33.8566512418	
        0.7300000000	       35.3432192595	       33.8158797267	
        0.7350000000	       35.2026423617	       33.7563131998	
        0.7400000000	       35.1692980775	       33.7059744027	
        0.7450000000	       35.2009075866	       33.6837052085	
        0.7500000000	       35.2654637889	       33.6870382053	
        0.7550000000	       35.2938493010	       33.7030740747	
        0.7600000000	       35.2761363079	       33.7274748792	
        0.7650000000	       35.0642017259	       33.7343810374	
        0.7700000000	       34.6430616260	       33.6964404379	
        0.7750000000	       34.1960978178	       33.6434365517	
        0.7800000000	       33.5900512313	       33.5718928388	
